HIERARCHY
ROOT newVegas:Hips
{
	OFFSET 0.000000 96.479958 0.000000
	CHANNELS 6 Xposition Yposition Zposition Xrotation Yrotation Zrotation
	JOINT newVegas:Pelvis
	{
		OFFSET 0.000000 0.000000 0.000000
		CHANNELS 3 Xrotation Yrotation Zrotation
		JOINT newVegas:LeftUpLeg
		{
			OFFSET 18.735201 -5.666702 -4.541200
			CHANNELS 3 Xrotation Yrotation Zrotation
			JOINT newVegas:LeftLeg
			{
				OFFSET -0.021200 -31.938179 0.493100
				CHANNELS 3 Xrotation Yrotation Zrotation
				JOINT newVegas:LeftFoot
				{
					OFFSET 0.021200 -31.938179 -4.336299
					CHANNELS 3 Xrotation Yrotation Zrotation
					JOINT newVegas:LeftToeBase
					{
						OFFSET 0.943001 -26.722000 15.023500
						CHANNELS 3 Xrotation Yrotation Zrotation
						End Site
						{
							OFFSET 0.000000 30.670183 0.000000
						}
					}
				}
				JOINT newVegas:Left_PantLeg
				{
					OFFSET 0.663870 -9.044666 -1.108900
					CHANNELS 3 Xrotation Yrotation Zrotation
					End Site
					{
						OFFSET 1.415995 20.635357 0.000000
					}
				}
			}
		}
		JOINT newVegas:RightUpLeg
		{
			OFFSET -18.735201 -5.666702 -4.541200
			CHANNELS 3 Xrotation Yrotation Zrotation
			JOINT newVegas:RightLeg
			{
				OFFSET 0.018946 -31.938133 0.493100
				CHANNELS 3 Xrotation Yrotation Zrotation
				JOINT newVegas:RightFoot
				{
					OFFSET -0.018946 -31.938126 -4.336299
					CHANNELS 3 Xrotation Yrotation Zrotation
					JOINT newVegas:RightToeBase
					{
						OFFSET -0.943001 -26.722004 15.023500
						CHANNELS 3 Xrotation Yrotation Zrotation
						End Site
						{
							OFFSET 0.000000 30.670187 0.000000
						}
					}
				}
				JOINT newVegas:Right_PantLeg
				{
					OFFSET -0.661674 -9.044716 -1.108900
					CHANNELS 3 Xrotation Yrotation Zrotation
					End Site
					{
						OFFSET -1.415958 20.635269 0.000000
					}
				}
			}
		}
	}
	JOINT newVegas:Spine
	{
		OFFSET 0.000000 10.199997 -0.299500
		CHANNELS 3 Xrotation Yrotation Zrotation
		JOINT newVegas:Spine1
		{
			OFFSET 0.000000 11.900002 -1.516600
			CHANNELS 3 Xrotation Yrotation Zrotation
			JOINT newVegas:Spine2
			{
				OFFSET 0.000000 13.600006 -2.842500
				CHANNELS 3 Xrotation Yrotation Zrotation
				JOINT newVegas:Neck
				{
					OFFSET 0.000000 9.624100 -2.890100
					CHANNELS 3 Xrotation Yrotation Zrotation
					JOINT newVegas:Head
					{
						OFFSET 0.000000 14.068802 -1.351900
						CHANNELS 3 Xrotation Yrotation Zrotation
						JOINT newVegas:Hair_Back
						{
							OFFSET 0.000000 3.231903 -17.524799
							CHANNELS 3 Xrotation Yrotation Zrotation
							End Site
							{
								OFFSET 0.000000 19.849884 0.000000
							}
						}
						JOINT newVegas:Hair_Front
						{
							OFFSET 0.000000 31.260406 4.573800
							CHANNELS 3 Xrotation Yrotation Zrotation
							JOINT newVegas:Hair_Front1
							{
								OFFSET 0.000000 2.284103 11.993300
								CHANNELS 3 Xrotation Yrotation Zrotation
								JOINT newVegas:Hair_Front2
								{
									OFFSET 0.000000 2.284103 11.993300
									CHANNELS 3 Xrotation Yrotation Zrotation
									End Site
									{
										OFFSET 0.000000 12.208862 0.000000
									}
								}
							}
						}
						JOINT newVegas:Jowel
						{
							OFFSET 0.000000 -7.458206 6.864100
							CHANNELS 3 Xrotation Yrotation Zrotation
							End Site
							{
								OFFSET 0.000000 19.849884 0.000000
							}
						}
					}
				}
				JOINT newVegas:LeftShoulder
				{
					OFFSET 15.263000 10.923401 -0.547700
					CHANNELS 3 Xrotation Yrotation Zrotation
					JOINT newVegas:LeftArm
					{
						OFFSET 25.438599 -2.830597 -13.032500
						CHANNELS 3 Xrotation Yrotation Zrotation
						JOINT newVegas:LeftForeArm
						{
							OFFSET 29.960503 0.000000 0.000000
							CHANNELS 3 Xrotation Yrotation Zrotation
							JOINT newVegas:LeftHand
							{
								OFFSET 27.849251 0.000000 0.000000
								CHANNELS 3 Xrotation Yrotation Zrotation
								JOINT newVegas:LeftHandThumb1
								{
									OFFSET 4.487587 -3.305161 6.305391
									CHANNELS 3 Xrotation Yrotation Zrotation
									JOINT newVegas:LeftHandThumb2
									{
										OFFSET 5.480453 -3.164139 3.164143
										CHANNELS 3 Xrotation Yrotation Zrotation
										JOINT newVegas:LeftHandThumb3
										{
											OFFSET 5.159721 -2.978973 2.978967
											CHANNELS 3 Xrotation Yrotation Zrotation
											End Site
											{
												OFFSET 2.494507 5.926697 1.738678
											}
										}
									}
								}
								JOINT newVegas:LeftHandIndex1
								{
									OFFSET 18.578728 -0.527832 5.208049
									CHANNELS 3 Xrotation Yrotation Zrotation
									JOINT newVegas:LeftHandIndex2
									{
										OFFSET 3.192009 0.000000 0.000000
										CHANNELS 3 Xrotation Yrotation Zrotation
										JOINT newVegas:LeftHandIndex3
										{
											OFFSET 3.835129 0.000000 0.000000
											CHANNELS 3 Xrotation Yrotation Zrotation
											End Site
											{
												OFFSET -0.034599 3.816971 0.371180
											}
										}
									}
								}
								JOINT newVegas:LeftHandMiddle1
								{
									OFFSET 18.476105 0.000000 0.000000
									CHANNELS 3 Xrotation Yrotation Zrotation
									JOINT newVegas:LeftHandMiddle2
									{
										OFFSET 3.324875 0.000000 0.000000
										CHANNELS 3 Xrotation Yrotation Zrotation
										JOINT newVegas:LeftHandMiddle3
										{
											OFFSET 4.596550 0.000000 0.000000
											CHANNELS 3 Xrotation Yrotation Zrotation
											End Site
											{
												OFFSET 0.057701 4.578827 0.399218
											}
										}
									}
								}
								JOINT newVegas:LeftHandRing1
								{
									OFFSET 17.732719 0.121887 -4.201567
									CHANNELS 3 Xrotation Yrotation Zrotation
									JOINT newVegas:LeftHandRing2
									{
										OFFSET 2.733170 0.000000 0.000000
										CHANNELS 3 Xrotation Yrotation Zrotation
										JOINT newVegas:LeftHandRing3
										{
											OFFSET 3.178268 0.000000 0.000000
											CHANNELS 3 Xrotation Yrotation Zrotation
											End Site
											{
												OFFSET 0.119102 3.170624 0.185394
											}
										}
									}
								}
								JOINT newVegas:LeftHandPinky1
								{
									OFFSET 15.989624 -0.606689 -7.535461
									CHANNELS 3 Xrotation Yrotation Zrotation
									JOINT newVegas:LeftHandPinky2
									{
										OFFSET 2.538986 0.000000 0.000000
										CHANNELS 3 Xrotation Yrotation Zrotation
										JOINT newVegas:LeftHandPinky3
										{
											OFFSET 2.593102 0.000000 0.000000
											CHANNELS 3 Xrotation Yrotation Zrotation
											End Site
											{
												OFFSET -0.150902 2.584198 0.152708
											}
										}
									}
								}
							}
							JOINT newVegas:Left_Sleeve
							{
								OFFSET 0.267448 -0.649796 0.577675
								CHANNELS 3 Xrotation Yrotation Zrotation
								End Site
								{
									OFFSET 0.000000 15.991241 0.000000
								}
							}
							JOINT newVegas:Left_CapeC
							{
								OFFSET 15.715958 -8.608795 -6.935905
								CHANNELS 3 Xrotation Yrotation Zrotation
								JOINT newVegas:Left_CapeC1
								{
									OFFSET 0.000000 -8.688499 0.000000
									CHANNELS 3 Xrotation Yrotation Zrotation
									End Site
									{
										OFFSET 0.000000 8.688499 0.000000
									}
								}
							}
						}
						JOINT newVegas:Left_CapeB
						{
							OFFSET 26.118385 -8.608795 -7.079235
							CHANNELS 3 Xrotation Yrotation Zrotation
							JOINT newVegas:Left_CapeB1
							{
								OFFSET 0.000000 -8.688499 0.000000
								CHANNELS 3 Xrotation Yrotation Zrotation
								End Site
								{
									OFFSET 0.000000 8.688499 0.000000
								}
							}
						}
						JOINT newVegas:Left_CapeA
						{
							OFFSET 5.115639 -8.608795 -10.395809
							CHANNELS 3 Xrotation Yrotation Zrotation
							JOINT newVegas:Left_CapeA1
							{
								OFFSET 0.000000 -8.688499 0.000000
								CHANNELS 3 Xrotation Yrotation Zrotation
								End Site
								{
									OFFSET 0.000000 8.688499 0.000000
								}
							}
						}
					}
				}
				JOINT newVegas:RightShoulder
				{
					OFFSET -15.263000 10.923401 -0.547700
					CHANNELS 3 Xrotation Yrotation Zrotation
					JOINT newVegas:RightArm
					{
						OFFSET -25.438599 -2.830597 -13.032500
						CHANNELS 3 Xrotation Yrotation Zrotation
						JOINT newVegas:RightForeArm
						{
							OFFSET -29.960503 0.000000 0.000000
							CHANNELS 3 Xrotation Yrotation Zrotation
							JOINT newVegas:RightHand
							{
								OFFSET -27.849251 0.000000 0.000000
								CHANNELS 3 Xrotation Yrotation Zrotation
								JOINT newVegas:RightHandThumb1
								{
									OFFSET -4.487587 -3.305161 6.305391
									CHANNELS 3 Xrotation Yrotation Zrotation
									JOINT newVegas:RightHandThumb2
									{
										OFFSET -5.480453 -3.164139 3.164143
										CHANNELS 3 Xrotation Yrotation Zrotation
										JOINT newVegas:RightHandThumb3
										{
											OFFSET -5.159721 -2.978973 2.978967
											CHANNELS 3 Xrotation Yrotation Zrotation
											End Site
											{
												OFFSET -2.494507 5.926697 1.738678
											}
										}
									}
								}
								JOINT newVegas:RightHandIndex1
								{
									OFFSET -18.578728 -0.527832 5.208049
									CHANNELS 3 Xrotation Yrotation Zrotation
									JOINT newVegas:RightHandIndex2
									{
										OFFSET -3.192009 0.000000 0.000000
										CHANNELS 3 Xrotation Yrotation Zrotation
										JOINT newVegas:RightHandIndex3
										{
											OFFSET -3.835129 0.000000 0.000000
											CHANNELS 3 Xrotation Yrotation Zrotation
											End Site
											{
												OFFSET 0.034599 3.816971 0.371180
											}
										}
									}
								}
								JOINT newVegas:RightHandMiddle1
								{
									OFFSET -18.476105 0.000000 0.000000
									CHANNELS 3 Xrotation Yrotation Zrotation
									JOINT newVegas:RightHandMiddle2
									{
										OFFSET -3.324875 0.000000 0.000000
										CHANNELS 3 Xrotation Yrotation Zrotation
										JOINT newVegas:RightHandMiddle3
										{
											OFFSET -4.596550 0.000000 0.000000
											CHANNELS 3 Xrotation Yrotation Zrotation
											End Site
											{
												OFFSET -0.057701 4.578827 0.399218
											}
										}
									}
								}
								JOINT newVegas:RightHandRing1
								{
									OFFSET -17.732719 0.121887 -4.201567
									CHANNELS 3 Xrotation Yrotation Zrotation
									JOINT newVegas:RightHandRing2
									{
										OFFSET -2.733170 0.000000 0.000000
										CHANNELS 3 Xrotation Yrotation Zrotation
										JOINT newVegas:RightHandRing3
										{
											OFFSET -3.178268 0.000000 0.000000
											CHANNELS 3 Xrotation Yrotation Zrotation
											End Site
											{
												OFFSET -0.119102 3.170624 0.185394
											}
										}
									}
								}
								JOINT newVegas:RightHandPinky1
								{
									OFFSET -15.989624 -0.606689 -7.535461
									CHANNELS 3 Xrotation Yrotation Zrotation
									JOINT newVegas:RightHandPinky2
									{
										OFFSET -2.538986 0.000000 0.000000
										CHANNELS 3 Xrotation Yrotation Zrotation
										JOINT newVegas:RightHandPinky3
										{
											OFFSET -2.593102 0.000000 0.000000
											CHANNELS 3 Xrotation Yrotation Zrotation
											End Site
											{
												OFFSET 0.150902 2.584198 0.152708
											}
										}
									}
								}
							}
							JOINT newVegas:Right_CapeC
							{
								OFFSET -15.715958 -8.608795 -6.935905
								CHANNELS 3 Xrotation Yrotation Zrotation
								JOINT newVegas:Right_CapeC1
								{
									OFFSET 0.000000 -8.688499 0.000000
									CHANNELS 3 Xrotation Yrotation Zrotation
									End Site
									{
										OFFSET 0.000000 8.688499 0.000000
									}
								}
							}
							JOINT newVegas:Right_Sleeve
							{
								OFFSET -0.267448 -0.649994 0.577675
								CHANNELS 3 Xrotation Yrotation Zrotation
								End Site
								{
									OFFSET 0.000000 15.991302 0.000000
								}
							}
						}
						JOINT newVegas:Right_CapeA
						{
							OFFSET -5.115540 -8.608795 -10.395824
							CHANNELS 3 Xrotation Yrotation Zrotation
							JOINT newVegas:Right_CapeA1
							{
								OFFSET 0.000000 -8.688499 0.000000
								CHANNELS 3 Xrotation Yrotation Zrotation
								End Site
								{
									OFFSET 0.000000 8.688499 0.000000
								}
							}
						}
						JOINT newVegas:Right_CapeB
						{
							OFFSET -26.118187 -8.608795 -7.079266
							CHANNELS 3 Xrotation Yrotation Zrotation
							JOINT newVegas:Right_CapeB1
							{
								OFFSET 0.000000 -8.688499 0.000000
								CHANNELS 3 Xrotation Yrotation Zrotation
								End Site
								{
									OFFSET 0.000000 8.688499 0.000000
								}
							}
						}
					}
				}
				JOINT newVegas:Left_Collar
				{
					OFFSET 18.625099 8.655502 8.828100
					CHANNELS 3 Xrotation Yrotation Zrotation
					JOINT newVegas:Left_Collar1
					{
						OFFSET 14.783401 10.540405 -1.259500
						CHANNELS 3 Xrotation Yrotation Zrotation
						End Site
						{
							OFFSET 0.000000 18.199875 0.000000
						}
					}
				}
				JOINT newVegas:Collar_Back
				{
					OFFSET 0.000000 15.630707 -20.132601
					CHANNELS 3 Xrotation Yrotation Zrotation
					End Site
					{
						OFFSET 0.000000 22.523010 0.000000
					}
				}
				JOINT newVegas:Left_Peck
				{
					OFFSET 17.239599 -5.132599 25.482599
					CHANNELS 3 Xrotation Yrotation Zrotation
					End Site
					{
						OFFSET 0.000000 22.523010 0.000000
					}
				}
				JOINT newVegas:Right_Peck
				{
					OFFSET -17.239599 -5.132202 25.482599
					CHANNELS 3 Xrotation Yrotation Zrotation
					End Site
					{
						OFFSET 0.000000 22.523010 0.000000
					}
				}
				JOINT newVegas:Right_Collar
				{
					OFFSET -18.625099 8.655792 8.828100
					CHANNELS 3 Xrotation Yrotation Zrotation
					JOINT newVegas:Right_Collar1
					{
						OFFSET -14.783401 10.539993 -1.259500
						CHANNELS 3 Xrotation Yrotation Zrotation
						End Site
						{
							OFFSET 0.000000 18.199631 0.000000
						}
					}
				}
			}
		}
		JOINT newVegas:Belly
		{
			OFFSET 0.000000 -6.540398 9.014299
			CHANNELS 3 Xrotation Yrotation Zrotation
			End Site
			{
				OFFSET 0.000000 11.566666 0.000000
			}
		}
	}
	JOINT newVegas:ElvisFacialAnim_Joint
	{
		OFFSET 1.000000 -95.330101 -8.825800
		CHANNELS 3 Xrotation Yrotation Zrotation
		End Site
		{
			OFFSET 0.000000 35.315800 0.000000
		}
	}
}
MOTION
Frames: 4
Frame Time: 0.033333
4.949465 71.847672 4.550766 57.583836 58.659700 -35.172588 0.000001 -0.000001 -0.000000 -60.484091 18.218700 0.463996 76.531853 5.506744 1.316862 -32.993844 24.090146 -11.000558 -0.000000 0.000002 -0.000000 0.000003 0.000001 0.000000 -74.465065 26.606713 -48.424074 34.065763 -2.314928 -2.151517 44.506571 -20.077957 35.161879 0.000000 -0.000000 0.000000 -0.000001 -0.000003 0.000001 16.415380 -6.966539 -7.393267 -4.336137 0.300434 -4.105271 1.640217 -0.487080 -4.263170 -5.714185 -4.052611 0.895606 -5.714222 -4.052641 0.895618 -0.000000 0.000001 -0.000000 -5.714200 -4.052564 0.895596 -5.714191 -4.052669 0.895623 -0.000000 0.000001 -0.000000 -0.000000 0.000001 -0.000000 8.683390 12.515590 -8.978144 51.284547 -32.639777 -20.450450 0.000000 -39.648022 0.000013 -25.984565 -35.517192 13.302313 -16.063843 -0.644392 -1.721589 4.401064 20.298409 -9.586118 0.000002 0.000001 -0.000003 2.184470 -10.355534 2.710330 0.195068 1.500669 -14.811783 -0.000000 0.000000 0.000000 -0.505247 -0.552180 -9.697493 0.204935 1.537461 -15.183772 0.000002 0.000000 0.000002 4.540212 16.352473 -18.454860 2.291145 4.646471 -52.476306 0.000001 0.000003 0.000002 1.152594 25.023756 -17.568572 2.223994 4.594279 -51.642903 -0.000001 -0.000003 -0.000001 -0.000000 0.000005 -0.000002 -0.000000 0.000005 -0.000002 -0.000001 0.000005 -0.000001 0.000000 -0.000002 0.000001 0.000000 -0.000003 0.000001 0.000000 -0.000002 0.000001 0.000000 -0.000003 0.000001 3.890950 13.083866 5.312067 -59.420043 -8.909702 25.017627 0.000013 47.130884 -0.000007 34.331242 5.483723 -49.884994 -13.883075 -3.695125 13.911973 7.375301 -23.020803 -2.783699 0.000000 -0.000002 -0.000001 0.078010 -1.754116 -6.493638 0.027754 -0.508182 6.250804 -0.000001 0.000000 0.000003 0.068863 -2.722091 5.410677 0.028374 -0.513860 6.320902 0.000002 -0.000002 0.000001 3.283486 -10.155117 25.110506 0.330887 -1.725725 21.706263 -0.000000 0.000001 0.000002 10.235429 -21.028460 34.973256 0.938121 -2.805150 36.976677 0.000002 0.000001 0.000002 -0.000002 0.000001 -0.000000 -0.000002 -0.000000 0.000003 -0.000002 0.000001 0.000001 0.000002 0.000002 -0.000000 0.000002 0.000003 -0.000000 0.000002 0.000002 -0.000000 0.000002 0.000002 -0.000000 0.000004 0.000001 0.000001 0.000004 0.000001 0.000001 0.000004 0.000001 0.000001 0.000004 0.000001 0.000001 0.000004 0.000001 0.000001 0.000004 0.000001 0.000001 0.000004 0.000001 0.000001 0.000001 0.000000 -0.000001 0.000001 -0.000001 -0.000000 
5.000618 71.852402 4.576530 58.144574 59.007288 -36.019467 -0.000000 0.000002 0.000001 -60.698074 18.100449 0.705003 76.686325 5.043533 1.310644 -33.036358 23.963394 -10.760008 0.000000 -0.000000 0.000000 -0.000002 0.000000 -0.000000 -74.131882 26.485715 -48.742764 34.785556 -2.422091 -2.190479 44.047207 -20.162333 35.493447 0.000000 0.000001 0.000000 0.000001 0.000000 -0.000001 16.035922 -6.805706 -7.378582 -3.791492 0.271304 -4.096703 1.918078 -0.486215 -4.243723 -5.684788 -4.104704 0.952325 -5.684804 -4.104714 0.952330 -0.000002 0.000001 -0.000001 -5.684933 -4.104708 0.952304 -5.684644 -4.104735 0.952344 -0.000001 0.000002 0.000000 -0.000002 0.000001 -0.000001 8.373251 11.351943 -9.043935 51.197025 -31.570787 -20.770378 -0.000009 -39.420498 0.000002 -25.894951 -35.243937 13.594035 -16.537292 -0.396139 -1.645207 4.302409 20.218159 -8.729745 0.000001 -0.000001 -0.000003 2.338843 -10.448475 3.678234 0.191286 1.486243 -14.666100 0.000001 -0.000001 -0.000000 -0.458469 -0.653587 -8.793893 0.201695 1.525496 -15.062770 0.000003 -0.000001 -0.000000 4.316069 16.337116 -17.517514 2.255309 4.618804 -52.032548 0.000003 -0.000002 -0.000001 0.979185 24.997511 -16.737110 2.187388 4.565158 -51.184164 0.000000 -0.000003 -0.000003 -0.000000 -0.000001 0.000000 -0.000000 -0.000001 0.000000 -0.000000 -0.000001 0.000000 -0.000002 0.000003 0.000001 -0.000002 0.000002 0.000001 -0.000002 0.000003 0.000001 -0.000002 0.000003 0.000001 3.585695 12.601636 6.216142 -59.661709 -8.693073 24.149686 0.000018 47.641324 -0.000024 34.011555 5.265223 -49.692457 -14.856295 -3.745374 12.373100 7.305675 -22.940184 -3.570272 0.000003 -0.000003 0.000001 0.082949 -1.712475 -7.008336 0.027750 -0.508170 6.250792 -0.000001 -0.000000 -0.000001 0.065092 -2.680308 4.895637 0.028377 -0.513869 6.320908 -0.000001 -0.000001 -0.000001 3.061687 -10.125909 23.441187 0.311827 -1.677069 21.064365 0.000000 -0.000004 0.000000 9.826193 -21.151149 33.300014 0.902142 -2.756782 36.234960 0.000002 -0.000004 0.000000 -0.000003 -0.000001 -0.000001 -0.000002 -0.000001 -0.000002 -0.000002 -0.000000 -0.000001 -0.000001 0.000003 -0.000006 -0.000001 0.000004 -0.000005 -0.000001 0.000003 -0.000006 -0.000001 0.000004 -0.000003 -0.000001 0.000000 0.000000 -0.000001 0.000000 0.000000 -0.000001 0.000000 0.000000 -0.000001 0.000000 0.000000 -0.000001 0.000000 0.000000 -0.000001 0.000000 0.000000 -0.000001 0.000000 0.000000 -0.000002 -0.000000 -0.000001 -0.000000 0.000002 0.000001 
5.075310 71.883102 4.618698 58.748779 59.450697 -36.981151 0.000001 0.000000 -0.000000 -60.859246 17.968752 1.004827 76.820326 4.505066 1.300921 -33.078336 23.747637 -10.467692 0.000000 -0.000001 0.000000 0.000000 0.000000 -0.000000 -73.651726 26.294394 -49.140465 35.613088 -2.553534 -2.206602 43.482142 -20.274720 35.864975 -0.000000 0.000000 -0.000000 -0.000001 -0.000001 -0.000001 15.659220 -6.637256 -7.411771 -3.199233 0.229808 -4.115804 2.228497 -0.499653 -4.250796 -5.649953 -4.162955 1.027366 -5.649924 -4.162952 1.027368 -0.000001 -0.000001 -0.000000 -5.649939 -4.162965 1.027371 -5.649945 -4.163000 1.027382 -0.000002 0.000001 -0.000000 -0.000001 -0.000001 -0.000000 8.042503 10.126542 -9.120194 51.148558 -30.425084 -21.084567 0.000014 -39.153626 -0.000003 -26.048362 -35.115799 13.862317 -17.540196 0.115023 -1.470725 4.097267 20.039565 -6.884543 -0.000003 0.000000 -0.000001 2.680318 -10.624505 5.756530 0.183633 1.456753 -14.368628 0.000001 -0.000001 -0.000000 -0.352224 -0.863408 -6.856177 0.195281 1.501437 -14.819526 -0.000004 0.000001 -0.000003 3.828584 16.277055 -15.495155 2.177768 4.557428 -51.063266 0.000002 -0.000000 -0.000003 0.601486 24.919602 -14.927882 2.108146 4.500475 -50.181714 0.000002 -0.000005 0.000001 0.000001 -0.000002 0.000003 0.000001 -0.000002 0.000003 0.000001 -0.000001 0.000003 0.000001 -0.000001 -0.000001 0.000001 -0.000002 0.000001 0.000001 -0.000001 -0.000001 0.000001 -0.000001 -0.000001 3.282250 11.903587 7.287692 -59.972906 -8.296277 23.505423 -0.000011 47.996310 0.000018 34.036045 4.897982 -49.377292 -16.767640 -3.814011 9.272062 7.170059 -22.773316 -5.137775 0.000001 0.000000 -0.000002 0.093903 -1.629516 -8.035306 0.027743 -0.508176 6.250799 -0.000000 0.000001 -0.000000 0.058688 -2.596890 3.868070 0.028381 -0.513864 6.320903 -0.000000 -0.000002 -0.000000 2.611113 -10.022909 20.111553 0.275440 -1.579401 19.783926 -0.000000 -0.000001 0.000000 8.966079 -21.308259 29.948293 0.832267 -2.658920 34.756172 0.000001 -0.000000 0.000001 0.000002 0.000000 0.000001 0.000002 -0.000000 0.000002 0.000003 0.000001 0.000003 0.000001 0.000000 -0.000001 0.000001 0.000001 -0.000000 0.000001 0.000000 -0.000001 0.000001 0.000001 -0.000000 -0.000002 -0.000000 -0.000001 -0.000002 -0.000000 -0.000001 -0.000002 -0.000000 -0.000001 -0.000002 -0.000000 -0.000001 -0.000002 -0.000000 -0.000001 -0.000002 -0.000000 -0.000001 -0.000002 -0.000000 -0.000001 0.000003 0.000000 0.000001 0.000001 0.000000 -0.000000 
5.161848 71.976555 4.687420 59.405051 60.041399 -38.020470 -0.000001 0.000000 -0.000001 -60.867996 17.804848 1.256593 76.798558 3.838035 1.293288 -33.032929 23.537674 -10.099428 0.000000 0.000000 -0.000000 0.000003 0.000000 0.000000 -72.904865 26.059996 -49.659310 36.496153 -2.676783 -2.212720 42.845715 -20.463501 36.343781 -0.000000 -0.000000 -0.000000 0.000003 -0.000001 0.000002 15.284550 -6.575658 -7.503656 -2.543151 0.154198 -4.119576 2.585502 -0.545772 -4.241462 -5.562553 -4.213229 1.056412 -5.562570 -4.213253 1.056419 -0.000003 -0.000001 -0.000001 -5.562488 -4.213256 1.056421 -5.562566 -4.213256 1.056419 -0.000000 0.000001 -0.000000 -0.000003 -0.000001 -0.000000 7.715116 8.739431 -9.301198 51.582214 -29.212941 -21.132354 0.000006 -38.935586 0.000014 -25.676976 -34.658128 14.047087 -19.068216 0.866313 -1.183521 3.792305 19.751136 -4.033347 0.000002 0.000002 -0.000006 3.218102 -10.849036 8.960817 0.172747 1.413583 -13.933917 -0.000000 -0.000001 0.000001 -0.174824 -1.170020 -3.873490 0.186189 1.466674 -14.468666 0.000005 0.000001 -0.000001 3.072893 16.124043 -12.367750 2.058575 4.458809 -49.546903 -0.000001 0.000003 -0.000003 0.014716 24.758553 -12.107326 1.986445 4.396469 -48.612690 0.000000 -0.000003 -0.000001 0.000001 0.000001 -0.000003 0.000001 0.000001 -0.000003 0.000001 0.000001 -0.000003 0.000000 0.000003 0.000003 0.000000 0.000002 0.000002 0.000000 0.000003 0.000003 0.000000 0.000002 0.000001 3.022705 11.102399 8.218134 -60.239967 -8.229919 23.135657 -0.000020 48.555770 0.000020 34.050296 4.606195 -49.176710 -19.464243 -3.733757 4.874126 6.986781 -22.531396 -7.351765 0.000001 -0.000001 -0.000002 0.111944 -1.512480 -9.488354 0.027747 -0.508178 6.250799 0.000003 0.000000 0.000001 0.052201 -2.478648 2.414249 0.028372 -0.513858 6.320902 -0.000000 -0.000001 0.000001 1.975707 -9.798881 15.405135 0.227723 -1.439916 17.972915 -0.000000 -0.000001 -0.000001 7.699280 -21.388001 25.192388 0.737850 -2.517538 32.665376 0.000001 -0.000004 -0.000000 -0.000000 0.000000 -0.000000 0.000001 -0.000001 -0.000002 0.000000 0.000001 -0.000000 0.000001 0.000002 -0.000003 0.000001 0.000003 -0.000001 0.000001 0.000002 -0.000003 0.000001 0.000003 0.000000 -0.000001 0.000001 -0.000000 -0.000001 0.000001 -0.000000 -0.000001 0.000001 -0.000000 -0.000001 0.000001 -0.000000 -0.000001 0.000001 -0.000000 -0.000001 0.000001 -0.000000 -0.000001 0.000001 -0.000000 0.000001 0.000000 0.000002 -0.000001 0.000000 -0.000001 
